<svg xmlns="http://www.w3.org/2000/svg" viewBox="0 0 64 64">
  <rect width="64" height="64" rx="14" fill="#020617"/>
  <circle cx="32" cy="32" r="24" fill="#1d4ed8" opacity=".32"/>
  <path fill="#60a5fa" d="M32 10c-7.2 0-13 5-13 11.3 0 2 .6 3.8 1.7 5.4-3.3 1.9-5.4 5-5.4 8.5 0 5.7 5.3 10.3 11.8 10.3h1.1V54h7.6v-8.5h1.1c6.5 0 11.8-4.6 11.8-10.3 0-3.5-2.1-6.6-5.4-8.5 1.1-1.6 1.7-3.4 1.7-5.4C45 15 39.2 10 32 10Zm-5.4 16.2a4.1 4.1 0 1 1 0-8.2 4.1 4.1 0 0 1 0 8.2Zm10.8 0a4.1 4.1 0 1 1 0-8.2 4.1 4.1 0 0 1 0 8.2Z"/>
</svg>
